<svg version="1.0" xmlns="http://www.w3.org/2000/svg"
 width="512.000000pt" height="512.000000pt" viewBox="0 0 512.000000 512.000000"
 preserveAspectRatio="xMidYMid meet">

<g transform="translate(0.000000,512.000000) scale(0.100000,-0.100000)"
fill="#000000" stroke="none">
<path d="M2460 5113 c-653 -29 -1249 -290 -1706 -747 -414 -415 -667 -942
-735 -1531 -14 -129 -14 -421 0 -550 68 -589 321 -1116 735 -1531 413 -413
938 -666 1526 -734 122 -15 438 -15 560 0 339 39 639 133 935 294 669 361
1144 1004 1289 1743 37 189 47 297 47 503 0 206 -10 314 -47 503 -50 258 -136
493 -262 722 -367 665 -999 1132 -1734 1278 -186 38 -435 58 -608 50z m-721
-1581 c15 -15 202 -318 415 -674 236 -396 391 -646 399 -643 6 3 221 54 477
115 255 61 465 112 466 113 1 1 -66 97 -148 212 -81 116 -156 223 -165 239
-15 28 -14 31 5 46 13 11 106 31 270 58 208 35 256 40 277 30 30 -14 418 -489
423 -518 4 -26 -5 -30 -238 -91 -107 -28 -200 -54 -207 -58 -7 -4 63 -106 188
-274 109 -148 199 -277 199 -288 0 -26 -9 -30 -480 -199 -503 -181 -676 -240
-705 -240 -53 0 -78 36 -305 440 -72 129 -134 238 -138 242 -4 4 -162 -33
-352 -83 -190 -49 -355 -89 -368 -89 -28 0 -71 21 -94 46 -18 21 -677 1444
-698 1508 -12 38 -12 41 14 63 16 13 41 23 59 24 18 0 156 11 307 23 374 32
366 32 399 -2z"/>
<path d="M1363 3436 c-127 -11 -234 -24 -238 -28 -5 -4 644 -1361 658 -1374 4
-5 601 137 609 145 4 3 -158 292 -361 641 l-367 635 -35 1 c-19 1 -138 -8
-266 -20z"/>
<path d="M3506 2905 c-98 -19 -180 -35 -181 -37 -4 -3 257 -364 278 -386 11
-10 50 -3 205 34 106 25 192 50 192 55 0 19 -285 369 -300 368 -8 0 -95 -16
-194 -34z"/>
<path d="M3445 2305 c-66 -18 -280 -74 -476 -125 l-356 -92 111 -192 c169
-289 210 -355 222 -360 17 -6 969 320 969 332 0 14 -334 472 -343 471 -4 -1
-61 -16 -127 -34z"/>
</g>
</svg>
